<mxfile modified="2022-07-28T11:23:45.958Z" host="app.diagrams.net" agent="5.0 (Macintosh; Intel Mac OS X 10_15_7) AppleWebKit/605.1.15 (KHTML, like Gecko) Version/15.5 Safari/605.1.15" etag="HldNOM25CcjoDGS1yRpU" version="20.2.2" type="github">
  <diagram id="Ht1M8jgEwFfnCIfOTk4-" name="Page-1">
    <mxGraphModel dx="1186" dy="1540" grid="1" gridSize="10" guides="1" tooltips="1" connect="1" arrows="1" fold="1" page="1" pageScale="1" pageWidth="1169" pageHeight="827" math="0" shadow="0">
      <root>
        <mxCell id="0" />
        <mxCell id="1" parent="0" />
        <mxCell id="thgJVY1lyZuIQ7c-VGDG-17" value="" style="rounded=0;whiteSpace=wrap;html=1;fontSize=46;" parent="1" vertex="1">
          <mxGeometry x="190" y="-568" width="200" height="308" as="geometry" />
        </mxCell>
        <mxCell id="thgJVY1lyZuIQ7c-VGDG-13" value="" style="shape=image;html=1;verticalAlign=top;verticalLabelPosition=bottom;labelBackgroundColor=#ffffff;imageAspect=0;aspect=fixed;image=https://cdn2.iconfinder.com/data/icons/boxicons-logos/24/bxl-unity-128.png;fontSize=46;shadow=1;" parent="1" vertex="1">
          <mxGeometry x="220" y="-438" width="128" height="128" as="geometry" />
        </mxCell>
        <mxCell id="thgJVY1lyZuIQ7c-VGDG-18" value="" style="strokeColor=#dddddd;shadow=1;strokeWidth=1;rounded=1;absoluteArcSize=1;arcSize=2;fontSize=46;" parent="1" vertex="1">
          <mxGeometry x="190" y="-568" width="150" height="44" as="geometry" />
        </mxCell>
        <mxCell id="thgJVY1lyZuIQ7c-VGDG-19" value="Frontend&#xa;Platform Services" style="sketch=0;dashed=0;connectable=0;html=1;fillColor=#757575;strokeColor=none;shape=mxgraph.gcp2.frontend_platform_services;part=1;labelPosition=right;verticalLabelPosition=middle;align=left;verticalAlign=middle;spacingLeft=5;fontSize=12;shadow=1;" parent="thgJVY1lyZuIQ7c-VGDG-18" vertex="1">
          <mxGeometry y="0.5" width="32" height="32" relative="1" as="geometry">
            <mxPoint x="5" y="-16" as="offset" />
          </mxGeometry>
        </mxCell>
        <mxCell id="thgJVY1lyZuIQ7c-VGDG-20" value="Unity" style="text;html=1;align=center;verticalAlign=middle;resizable=0;points=[];autosize=1;strokeColor=none;fillColor=none;fontSize=46;" parent="1" vertex="1">
          <mxGeometry x="225" y="-328" width="130" height="70" as="geometry" />
        </mxCell>
        <mxCell id="thgJVY1lyZuIQ7c-VGDG-22" value="" style="html=1;verticalLabelPosition=bottom;labelBackgroundColor=#ffffff;verticalAlign=top;shadow=0;dashed=0;strokeWidth=1;shape=mxgraph.ios7.misc.iphone;strokeColor=#c0c0c0;fontSize=46;" parent="1" vertex="1">
          <mxGeometry x="40" y="-469" width="50" height="110" as="geometry" />
        </mxCell>
        <mxCell id="9kHZ2l1QccTzhoDIpTN6-2" value="" style="rounded=0;whiteSpace=wrap;html=1;fontSize=46;" parent="1" vertex="1">
          <mxGeometry x="480" y="-568" width="510" height="308" as="geometry" />
        </mxCell>
        <mxCell id="9kHZ2l1QccTzhoDIpTN6-4" value="" style="strokeColor=#dddddd;shadow=1;strokeWidth=1;rounded=1;absoluteArcSize=1;arcSize=2;fontSize=46;" parent="1" vertex="1">
          <mxGeometry x="480" y="-568" width="150" height="44" as="geometry" />
        </mxCell>
        <mxCell id="9kHZ2l1QccTzhoDIpTN6-1" value="" style="aspect=fixed;perimeter=ellipsePerimeter;html=1;align=center;shadow=0;dashed=0;fontColor=#4277BB;labelBackgroundColor=#ffffff;fontSize=12;spacingTop=3;image;image=img/lib/ibm/infrastructure/mobile_backend.svg;" parent="1" vertex="1">
          <mxGeometry x="490" y="-563" width="38" height="38" as="geometry" />
        </mxCell>
        <mxCell id="9kHZ2l1QccTzhoDIpTN6-7" value="&lt;span style=&quot;caret-color: rgb(0, 0, 0); color: rgb(0, 0, 0); font-family: Helvetica; font-size: 12px; font-style: normal; font-variant-caps: normal; font-weight: 400; letter-spacing: normal; text-align: left; text-indent: 0px; text-transform: none; word-spacing: 0px; -webkit-text-stroke-width: 0px; background-color: rgb(248, 249, 250); text-decoration: none; float: none; display: inline !important;&quot;&gt;Backend&lt;/span&gt;&lt;br style=&quot;caret-color: rgb(0, 0, 0); color: rgb(0, 0, 0); font-family: Helvetica; font-size: 12px; font-style: normal; font-variant-caps: normal; font-weight: 400; letter-spacing: normal; text-align: left; text-indent: 0px; text-transform: none; word-spacing: 0px; -webkit-text-stroke-width: 0px; text-decoration: none;&quot;&gt;&lt;span style=&quot;caret-color: rgb(0, 0, 0); color: rgb(0, 0, 0); font-family: Helvetica; font-size: 12px; font-style: normal; font-variant-caps: normal; font-weight: 400; letter-spacing: normal; text-align: left; text-indent: 0px; text-transform: none; word-spacing: 0px; -webkit-text-stroke-width: 0px; background-color: rgb(248, 249, 250); text-decoration: none; float: none; display: inline !important;&quot;&gt;Platform Services&lt;/span&gt;" style="text;whiteSpace=wrap;html=1;" parent="1" vertex="1">
          <mxGeometry x="528" y="-568" width="130" height="50" as="geometry" />
        </mxCell>
        <mxCell id="9kHZ2l1QccTzhoDIpTN6-9" value="" style="shape=flexArrow;endArrow=classic;html=1;rounded=0;" parent="1" edge="1">
          <mxGeometry width="50" height="50" relative="1" as="geometry">
            <mxPoint x="110" y="-400" as="sourcePoint" />
            <mxPoint x="170" y="-400" as="targetPoint" />
          </mxGeometry>
        </mxCell>
        <mxCell id="9kHZ2l1QccTzhoDIpTN6-10" value="" style="shape=image;verticalLabelPosition=bottom;labelBackgroundColor=default;verticalAlign=top;aspect=fixed;imageAspect=0;image=data:image/png,iVBORw0KGgoAAAANSUhEUgAAAa8AAAB1CAMAAADOZ57OAAABIFBMVEX///8ARIBx1/wAQH4ANHgAQn8AOnsANnkAPHw7YJAAPn37/f6/zdv2+PsoXJAAL3bi5+5Vdp7o7/SCmbYnV4zM2uawwNLc4usASYVs0fdKpNHv9PgJUIpUsdy2x9gALXXo+P5hwuo8ksIPWJF9kK/b9P4aZp142fwpea2r5v1myfDN8P03i7wAVZEXYZlZuOKL3vyg4/2+7P0kc6jS5O+OzepAaZeUqcKgs8l80fPU6/bA3+/j9v5NqNR5stS20eN6psdqhqmXvNZVhK6Po71KcJt7lrU6m8u13/J2weSm0OeRyudkrNMAhLzH3exmuN5TmMIAG26NtdJqoMVmlboAJXNOcZxHhbIraZxggaeXts99sdIAFm2NvttTncdPjLiaZdj4AAAbsklEQVR4nO2dC1vayNfAwZCAhJuRSzARUSqgXERRQFer1IrWtrb/1q3avrv9/t/inXMmyUwgISFq3eeRs8/WAJlkMr+cOWfO3EKhWaW8KZN/ax2Q2iY5PD5OznyRufwJKTe2OgsLC4CnWFwoEgFene3t7YOrI+2lczeXMdlcoAK8akWUcigkHxJe2+vruy+dvblYkmxskX/LNcQFkEIdyktmvI7It1dX5RfN51xAylsE1DE56FD9gkpwl/IiR1oRca1Dfbi+s3NwJL9sbl+7bO4ipD1yuEd5NcjhlsWrTHEdwOEOkdUPf82JvZzIhtHqkOPyAkOHuA7J0THldUUOr3YQ2MlfL5vl1y0NAxgoDa0QwZY1ANc2+BhH64ALq8MPiGv1w8tm+NWKvAtkQjVWC9IKEShtIi/4fQ9orR+C50FxrYLn8dcX5SWz/hqlQUCVQ5YbD5SO0T+EqvEYeWEliLzg6C+mXvKXlZPruRn7g5LcNas+0y0kR3IHecngZRTJf6Bzu4BrB9zHA6pecHi1crJy+en4JR/gdcmmUQuWQ5aCgRu/BQc1sFVFcOOh5jtA/TKqQ4LrI/kuuXpycrKysnL6ko/wqmR3gdWCnJuxiWGoMjmCRvI2KNAhqNc1OThaRV5gt65XgBbRsOeOLCaZPPOd/uMiG5UgtpPRbC3U4OsFAIaYgFeZfAPe4Q4o2vUq4AJyGtWulZVn9zl6YdUQIffc9/rPCvoJRvAJ211U21Ctdvko7zYaMuAFqT6sgkBd+dFQL6AYetY48KIgGiK9Wl7lGlaCxwvMjy9b7WRsd6GbAbzgJ8AFwY1joHUCfqKygup1ic3m/c83z5jXRSFsyKvldVyjZAgaqxqkfgb4hTLwgp+3CC4Ib2wCLyBzDby+gBn5h2oXOB4hZWOj+Yxex5zXcc30BSkkQ8FqprMIgXnQvwb0epG/RzuEF1CC6hAjUUdYG16+hUto/24QYNfPlttXz4viWqiV4QNreGFko2gGDg1e2OUFjWRoIZdRvcD0fQBe1DWU324Ar+fTsNfOK1kzw7tY3B3LbiWBF/CBhjLWg4QXjfGu72Bww1SvffQMV7Ct/A/F1Ww+lw177bxkow40Gl5lFurdI4682VCGYOEx4QV4IKgBbKA6/AJX+IDGCwGdmri+Ppdj/+d4yYmSKfn/UltvzwSGoahNdggKhj1fxM8g3DSjS/lwZ2c9BF1fRL0w0HsJuNBi7W9QXp9/PVsk8c/xSuqRqCH/yzzvrWaTY7NKRCdxz4pKNQzDRSpCGuBYXwe9Wt8xghtGoPcT4PoHkmomrudzN/4kr5Ro3ir9H+G12UE90MzQBnMSsXKsFYs19OhpHIrwKoeQF0YRjUDvNbqGcB35X6M2pLbr17fnyPJr5kV89k4ZDmQzeAifqM8BKBpGZIO0lOHP4fo6+V3b2fmCsd7VE2hvaaBeKxjSeEvV6+s+fNC+17vPUaCvmRdQwgGglhFDfZNrVti3WMSu5e11bDAfHoDbsbOKrTBevTAM9Y7i+o7s9n/X6/W7Z3A6XjGvPc5qmYMArMAUKtYmHbBR3sVRa7KMNK8OAM9Hql7KiRmGOqW4qKdx2iS46t2zp8/06+VlxnepM2j2f+GHhtGnHOpsF126IHdOjECv3TWk7eR3dSrdp2+FvV5eps0yasFQsmMFo0JbRerKb+5uuqQuXwMmxQxDKdTXoHzO6iav+pPH6l8vL6vdRYwYVaKtouUk7hLX0Mc1SFP5E1aSn4DWBtorrWnh6n6b83o6YaENQ6soQowkyh06VmO6KJdGDyW4hk106kP7zXrToHX2DD1hr5gXUQVGzDBiCAzKvXzojYt4iZ/QeQfXsPkOvzk1tat79iwP+Up5yYZdKltWbBdjZOWO6ST6iyjhWX+B7UJPQ/72uUldw9t9ekLSn45pmUIukSjlE7lCITOtGTDOS8kUCrlSPp9PFDK+1TlJE8HNFNfQIM/Lf8ME8pPIlxIej8GJpmQwDUiJpHLMUKO4W6ZHm2ZwgzadYVRbcct39kDANfzXaCQTXMDrt+kY5u7OPFInlVx/uJRSI0Si0UgkHVNTS6OS5vK+MF6xRCY/+pFVhQjG+SKSmnroF7wjs1pi1NPj9GaRuN4bDpy1h+MVzSfGxek+cqb/kFWlNLl2hGQnuzRyPI3lREmQR1/M6uFYxIhVRoRsb5ifJA2Qtsr0uGELR+HEhrLnU3O5JL7GJ7xDZoNq192pUdi523a7Pe2t1/JvemJEigmiVTZhURTjsUj8h3NQnPES9UiUTwjppHSqP13LCiM9IvGphHg09sapauV4hQGtTdYmUyTzS9FonKUJk+xEssvOL4OsJd4PUxJ59Dhkhk8lxCLicOzyx7Tnf8so10bN1nQu+jFdTJQN6mncGMr1zrhq5rZdrVYrP10TDpaIVghhZxEiat+BGOPFPySXLBoeuGe1sBSJOdwwll6aLFae17iIsQleAz0Sn0wgSpHh5FMkB710RIqLbjcQY5GLBJ/Aslp7xhfUuS/SKZOz9vZQ9X1HcZm0lDOgVa22u26WUP477logmOuoUJpItOjGlyWL9Nwsxyjtdsf4Wn/85Jl4FVIRl7NFKT7xFIm/PZ9CWBux88vMkTeJyZRYJ6gLLr/FuvCbwVr7RlDdI69Wwi1JxLvoh+OJvHmRwg8XnO6X7EWnEIiOU56FVyk9JVtienksJwnPJycSXbJedK6pTNx3o/ajzn3NLaAxXTJfm9BNaTyy9q5e7Xa7VL8qty5pvHmRTD+MKbsfXmEh7mA1lFRsaqLYoh3YDLwGbsplnB0d2a7sj1dYejCB7XV4YAsd5tzTHq/Z5dfn5ufvhgsvl+66XQNXu12pnLvorB9eBJg9P754hYXUxFN44SLAeraM+uc1iHpcWZTe2/Lij1c4aqWSy3udGk/MiOoe787oa1ilsfHdcOHl099Iq3sPulU9/5lxM4e+eIUj9kf1x4t7VPNmD5JnIumBT+GbV87Bz5i4tM0o+OQliny9Xm7scsjM5thxwJEXipHu5pbSItrVvr8tTQsMTPASwbOdeHb7o07yoqnGk8XGrNFgsogmSzma51L45aUtTnebaAKVL1cHXqJod+vpQyyNldgmF0LceoJBQPvfu12IHBJa3duch+9i4yXGJCkeFwQhHpPszy+k+IzZeJEWjiTFSBMGUkm2px2rgTKq7Ve4mwT/228lClwSv7yW7bWhYFzZnp2wxPscdl4CZiZOnyJmSxaH2yQbPOvjrVrRdBUfOapJOetinJf48D/5+j3h0mZkuRbT4rCUyGUURSnk8g9SlKcS4RtUHK/oWmU4IKn2SbJMrtTXeasvpmxvywNvvGJpdZQnCROlwYNkcxWi3K14XpH0mPxtPV/B9gJF0/eDfCmXK+XfV9b4Glhc4/LD8RLS0d5yPpHIFeDZE/lhhE8lgaOyWVzo7JW5hykb/gcdJx9UlF8Grd98PEUpnavSmWMCxkuM291jeaBzuRZ0TsG4eFR+7HqhUpZTlzR/yQKvR+k3vFnIZ7lbiSr7geMVSShjkrFe7SH3JsTVAUdFWeZ1jFd4xkvojb/L2nJ6LD/Um69tbXLqJBNjZgxfCyqnUBPWv59yhVv4Wa/orZZ+4ZiA068J/1t+4GoZiSMzNT6vcdpnq4C4QhUjY+1BecjdKsLatjwvx/YcSoYzOrHFMQuQ07lojM6Km+M1ZqFASqyZiPWu5czXdhtlLt+bW7XyZGrfkqzfnd2wDGu5s267VSHS0iuOFeI0XrYaLM7xnt6fkuEScSUhC1yhTjTfedcxzhro/ngNuLSLEx5AgQMWYfnleTnYoGV2TXhVbY1lUjOyFI/zOFh/hqyUbruVCjS+AJeuOnZVTeelqexR4+w18Oj/Yo/KG7ASK4DYRNwJmmbshVatMvDHK8Xiz6rDWXmmuzGm8B68tKzAJeKDUbTxZasZHy2y8vO2SliBAK+KrguOIdjpvPg3l3PpPXhlrMpfVNk131hqJyw6PSrn7DMt8MVLYyml8SYfPuMPK7/CD+vWHrxCI5bfB2uRPJua7TaeBpmc+3lnxHnblnrp4ZHjudN5KbroUBRe/cuWORFjrJCZMx91UC8YKs9uZZ3gi1fJ0h/+/eBPYE5V2HLDvHix38VeqLFQdCBWLNp9xiCinZ51rTAv0Gq1YF54XIqdO53uwSu0ZDl1AjNgXrwurN9ZIWtr1o2cI8HcC80MmC9erP6NO3gOcBVmUdPWVbx4FVj9nMKLlDcbe1u7nZqFDhfz6rjlyqecVo3ARpuQaqnV7vkIGiNuvRtevLiwHGvHevEaWpCZH8i7z87VCDMzQs80YL54sddDctRc8tZZZ7DGnRevjKXvom7/RTbIdQix7ce0vvA2BFW1fnf7/mf+1JUSd28PXgXGa8360osX05SI1QpgljA+0T9j5JyZvayZcV+8WE0bcRn+8966ecyyCl68lCzzZ52vKsuEXNktV37ldF9LJn0bQi9eXAyJDVDy4rVs8WLBQFZkjj4BZIVr8pi38sWL1bSiS6iU1RLsZfHmxXzjULnsv0ifQuSkknEcBuPFi3vL2MsbhBerI6MTMREjK8zhiMzCy0kvx4SxYRZuJl6dWq3T2d3aa2wCuedCJyc1JZPI95eHS72UGnUqWy9eXLSC2aIgvC4crjMmPesUyyvwwyvHHLnx2IZ1ioU0bjn0M/HifMIFSm6vcaw9DThSrSq50s/+8u35fUW1Rv44DE8JefOSWSFGrTBRAF7cdVwL3gGpH168J+MSbGAqyE4JyItzDWGp186jkZ3ddcGJb9EwFGko6zqs9DTeh2WIF68Qa2syXXkcr7RbwbO2g+WmPBEvhVWZlgo+ipcJbLv4aF44gK3KBTaQVzgoryUHuxOkPuT0y20M9wO7lel1z8rLpT5MWi6JmFImkwXUr+3t7eLj9etbvYvqhaIzXEF5Pbl++eE1i34x+yW42S+e12P1yzRgjc1j+UkMmGW/hmC/YthpKhAzFsh+cfVh5DH2y4+/EbA+5PyNlAsvVh8KwerD2gJzEGdoLc0o1D8c9EfEP8yqjmU7g7/xOH+eq1cnB6BS6QXzNwoMhps/X3isv1H+0w2woO0vzWlCT6D2F/vObaw2d6tZ/HkWmXQJ9/IqGLD95SgQ3zgqu+TKryRPC08a32CNWP/xqGDxjZAwmRVf8Q3m/MVczsk/Nr5hEzN+eFg0VvN6jOSIl9Hunt++7w8STxo/5IZVBOHlHT/k9OSp44d99rJYHZaz8rLi82bbC9dSXj90y5VPybdoLwrxCsW4FNXvl0b9J4nPc30VQXiVOK/bWfu5M6wgxBPF54eTnsxsvBr2ThQL1+Gjt4bSSrdtvWX0URJoMLIO5qClpUD9X8zHlpjZCcIrw404crYyLFXsjfldctG7GcAldOn/ktXJyORsvDbH214EV/Hp+peX70WVBTaMoh2foEHP9d+/zMorCK8Q65hxdjj4qZTWCbKDzzgheTZexNnh4LqKs9rkl378Qzuu7eLh047fSBb6D3qcxxWOOj6vBy9W8Ysi+zYQL1ZrCYtOibjxm0wJZNYMcKvrQqF9bvyG40mskoiz0fmz2S+bctnGR5XdsuVLFOtCciY/zEpsGoAYYHyUwiqSGOclBOLVtw8QG5ckz5O1PN44DBKYEDZSTtQdWsw5yUFzZ+TVMXHZxh/K5auD9cfsfyJXz/np3kpimBLobFch69j2n8pLZrMIRD6aFYhXgZWa4DDqbMTqS97hf88N/HV1OLiRqOOzE6AQuOFuUeZ3zcbLaXzv8dWhuax8UCmplZZ6z0+Jl3P9RZGomZsp5sZjT4xK7nEjcrNcRgPxCnH964I+fq/33PhefqUNfuzgw1iapBW65aBK42cpi9z4Ve7H2XhtQi3Ia1JjFzdgW9/B9V6DSuFcBc9QVId5fhD5YCn9t3P1z+uXfRq9PBC5Ae8u8x1m4TXgh+NLA76MchccLr5QQwo3rEri53kmS8M1K0/cqxCWevZplyo/np+rJGbjZZufUm50ttdxf8P17cfuapi7UKHTS41H7vt8xkvOLTB+PpGUTg0ShZAMM00GF2l+orHbfKJZeGncuGjyizTK5+hUmPepNf6XNVu9l+J+ikXfJwokRWkwTKUjMWZSbRPLhHSqX9qHCRG5/LJkfwruwkHjG8d7uIkN7ke5ffUETmLiQkBfPhyL6aPELPO/YN5UXBRxDhQ32j087lwG4zU+ZTUmxcidYNKYbfrfWLXXt03JJPnDaWY4Q4sVfzJlu4QowaUF0vK0T7+1NeGC8Epubh0Wt01cFq2gm/Mak/PkUi9GXXmScf0hP9v8SvxnbJZc9I0tUUBecs9hEuT4fDxRsGeXrxDp+cwZjFpnJcZm5hmPYf9Oso1wnplXmU4fKpq0dg1VOPqwGsyEFdr3JVptJfPWxG4xHtWXBhm3N8DX/OWxSeBBeYUKYe+JzxO+/jDmei63pNSy13RzeApbIczKa2uBi0Ntb1tzlw92dugGNjPLLTFcFwl6b62ftV45gky6eMT6ABPeXFBeXCTCRcToRBRGcV2Bhg95JH94XTqetT/FrLz2+MDhgeEqage4mXIw/VLOW5WWeG4UobIcZvNwJ3xhU3zwiqvjrkpgXqG+x+3GF8kAGbiS4EKaIW1xOrC4PpbVWXlp1qCN7UODlnxNtyovuxSup5yprZYeezAcLGUYMQ1GxK1P15uXlJrwLIPzCg3Wpqy7IKYdI4vv3fIY45VRm7ZyTljKjre2Z7ZfuwauQ3M1G2Oj8gNMPWuUgyp7CVzDcHRoFLHysIbE7CsZ8OLFS0gPJ5M+glcop7tZGjHqPKUQ3HVnuyfY5/i6r0wlro0v0ROA1zHispYQ/Ys0lQEX7bC8Wpmt4zLXoisOFSoqceWF6LJBrLAEOubapTudlxhL95yK8DG8QvL7eNSh+AVp0nSxp+s5oRClqL2gCxfpmIOOCZGsQ6x7dn++A7TM1fRI64uZLvnjycnKLBqW7FZa53Sl5QsBXHlJNdcgzP1Ix6OurTBbe5lfOVCMx6Lh8SUAjTTZtLkE4d+OJ4zWrN+dxspr/R4uZCdy94pkR1PXe00sxaJcEshdOjuawJAbqpEYF+MWia8V/zFw4pH4n7WO4oUjL5WttEi/aRTNxTaODmksaucDQtI+nKyezLZfTa5Sad1j4SVHcWx6RbMDWgfIiUX30DYXPxQTg2E2Zi4Uql+8ybtR5pb4dDylwH53WTa0sPyQUs17RdWeZ7s+JGcGJIlEyy+qXwwHBcckWv7NRVaEtS1xfdHUMK842wKFZdL5reSe0rw2/XNMN78muA6whI++nNCNG3zOPcf85NVKq0Lf5j6NTYjRxTzN6pT1e8fi84q1EK/LUz6daLBgrrHor897aXSNXVjXZFoKWYGFiOn6vU+/Onh516S1Q1UK98zDPQ6VT362NFTO0fkbqRVdpXYqYcQ4hbEVMh3Ec7zoXGyS3FpfN3nRUO/VCcGF+2wkP11eeod/tValjQp9TlxDga58l8kaFl9IP0xfcXzOaya52rZwGf2UH09WjT3zQm8vV1Z8XOOsUqmCq5FsE9dQrKDXIV+YjZF45GHaqLY5r5nkYN0AtkNbXeUvq+YOoqGPl3RDyv23+y6pM99gHWWl1W6hh5OpYJCXVoHL5hpaLh3Lhsx5zSSaiesacR3tIC60Y38RXJ/g4FNzwwVYt30PutNvVWjrKxEmwEQjSpOnwVVRcgttoMx5zSZ7FJdhulYRF7qGR6QyvARONxsb/4Zg5bV3wIZOYUmenoFZOmu3z8gfrVqpqNh9PJBwotcI4RdSEFGT3H15kDmvGQV9eWq6rikudA21E3OXqH83mrCR6OnnOjiL335/J07+frV6Rj7k2u0qFPJPvVKh1eBIQpW6QJOlPETCoj59TPac14xSXt/5gAYmebBKBT7JX8wtDk83NpqgZr+adVCpr906AaB0u3cEW/KeLnydvIeZeRDQlC/QMYzR6KY8iriPsqQy5zWrHNHxUNTTMF3Dj5fm/ryXpDokaORmE7Hd1eukWOV6twr0btvtCnybD+u6eg+ta40OyBWM4Wd9x0WjOJnzCibU0zBdw2vAdQk12Wlzo/krRPfZIJ/lu3oXANWrVdipN9FqV2BYvHwBrjz2cRXSNLiRdh0Oa5M5r0BytUp5UdfwZsXcrVw2NziEPaJgf/N6HRXrd7VaJ3+UaruNnRAJQVdVOkI+YfRXpCe7EBxkziuAyNCrzFzD4xPAdQnFfU3UawMMWrNZ/w2ORr3eBf/8rFqtgok6r1Qq2An0ECbA6GjjvgEslnJf4ZHdes5rdtG+UFx03AZuLk/VS8PdeUPAqVkHzyLXrXdhD71v1Wobgrv5FnHlAWAORkSJIlotYy1cwXFBgDGZ8woiprNRhg8fENcKePX/NI3tea8Jr+/k7023ixsq59vV9l0IQhqVio7BjaGgmiNjkj/ASRQFl3WabDLnFUiOvliuIfgapDYESgqoF5it0Nd6vQ56ViK8UM8q1WoF3EYcYgNgFFSqOC61Cl2jouu0bpvMeQUTomEnOALghuLCQO8vYr2a32V0M+p1qAd/El6gVzmiXy2oB/tqRddxjQK66CANZxQk0WnOjoPMeQUUbZX6GitYG2I/SgbVC+zYKWwCABp3RniBY1iA9UNB0QqirutxUCWNjueiQ4zy/zc1ashkziuoyGYYCniZgd5m8zO0wmCz8i42kGGxV1JBKvftdrsVgtAGDJXHELyxjC2dg+G37Oe8HiMYhiLahYHefdCu5lf4GnfnheK863arcKB120bLaxkmKseh5WUsMC0KPtx4dsc1KWZIZM5rVvnHqA1poLcJAlbrBje/BkWrwlLKAPMc1lOGEEYuDrPKMaprDISNua2i5CTy8I0l/jc4nguVmxMMRGGg9wZqw+ZngPMNcN1RXvdV7P0/r7QrlXtShSahk1LFZYTp4gdx0XH41lyeQ5S3hBYN9FL1apKj5G/gBeENpQorlYOBuoW1DXF54VFYVY1KEBbOj/ZmqQ7n8lg5vaSB3huKC6K6Bbq5vIz9XoQXDAI4gyVRVPAF8zEYBIATGuQLKf5+rlx/VrS3qF5fEddniPW+Q15n5OgGecFRXod5yjAaKhnBNTZwuZ7E4ly5XkZOqXp9JkDkr8gLNK0Ea722od2VwHnlKngWdOEKh4UM5vLHRNugvCBmmEFcGObNIy9sMKuwQBSGCKlbKPyfj+juXJ5L9n/hzvIQ0zjFLQ6r2I3ShpWU70MQ6MVVACD6lImKYizSy88N14uK8m2jDl3Koe90R0ra/48b2cCvVVwDAOfSVSLqMDGn9eKi3YDNUu5wc942hjfasFB5Czqa75EXdnENBvPIxH9HcnW69TW4Fl3cMK+1D3vGqbqqxiWv8TRz+eOiJL7ddasQ5Q3RtUNx5vSDoOoXA6/tsOfyQpLJgYHqoqt4D5VgLjevBP+Y/D870n8ThqJsrQAAAABJRU5ErkJggg==;" parent="1" vertex="1">
          <mxGeometry x="520" y="-469" width="184.19" height="50" as="geometry" />
        </mxCell>
        <mxCell id="-NZZhyzjUMRB8Kej1X74-1" value="&lt;ul style=&quot;text-align: start; box-sizing: border-box; border: 0px solid currentcolor; --tw-border-spacing-x: 0; --tw-border-spacing-y: 0; --tw-translate-x: 0; --tw-translate-y: 0; --tw-rotate: 0; --tw-skew-x: 0; --tw-skew-y: 0; --tw-scale-x: 1; --tw-scale-y: 1; --tw-pan-x: ; --tw-pan-y: ; --tw-pinch-zoom: ; --tw-scroll-snap-strictness: proximity; --tw-ordinal: ; --tw-slashed-zero: ; --tw-numeric-figure: ; --tw-numeric-spacing: ; --tw-numeric-fraction: ; --tw-ring-inset: ; --tw-ring-offset-width: 0px; --tw-ring-offset-color: #fff; --tw-ring-color: rgb(59 130 246 / 0.5); --tw-ring-offset-shadow: 0 0 #0000; --tw-ring-shadow: 0 0 #0000; --tw-shadow: 0 0 #0000; --tw-shadow-colored: 0 0 #0000; --tw-blur: ; --tw-brightness: ; --tw-contrast: ; --tw-grayscale: ; --tw-hue-rotate: ; --tw-invert: ; --tw-saturate: ; --tw-sepia: ; --tw-drop-shadow: ; --tw-backdrop-blur: ; --tw-backdrop-brightness: ; --tw-backdrop-contrast: ; --tw-backdrop-grayscale: ; --tw-backdrop-hue-rotate: ; --tw-backdrop-invert: ; --tw-backdrop-opacity: ; --tw-backdrop-saturate: ; --tw-backdrop-sepia: ; list-style: none; margin: 0px; padding: 0px; font-family: -apple-system, BlinkMacSystemFont, &amp;quot;Segoe UI&amp;quot;, Roboto, Helvetica, Arial, sans-serif; font-size: 26px;&quot; aria-labelledby=&quot;alternatives-heading&quot;&gt;&lt;li style=&quot;box-sizing: border-box; border: 0px solid currentcolor; --tw-border-spacing-x: 0; --tw-border-spacing-y: 0; --tw-translate-x: 0; --tw-translate-y: 0; --tw-rotate: 0; --tw-skew-x: 0; --tw-skew-y: 0; --tw-scale-x: 1; --tw-scale-y: 1; --tw-pan-x: ; --tw-pan-y: ; --tw-pinch-zoom: ; --tw-scroll-snap-strictness: proximity; --tw-ordinal: ; --tw-slashed-zero: ; --tw-numeric-figure: ; --tw-numeric-spacing: ; --tw-numeric-fraction: ; --tw-ring-inset: ; --tw-ring-offset-width: 0px; --tw-ring-offset-color: #fff; --tw-ring-color: rgb(59 130 246 / 0.5); --tw-ring-offset-shadow: 0 0 #0000; --tw-ring-shadow: 0 0 #0000; --tw-shadow: 0 0 #0000; --tw-shadow-colored: 0 0 #0000; --tw-blur: ; --tw-brightness: ; --tw-contrast: ; --tw-grayscale: ; --tw-hue-rotate: ; --tw-invert: ; --tw-saturate: ; --tw-sepia: ; --tw-drop-shadow: ; --tw-backdrop-blur: ; --tw-backdrop-brightness: ; --tw-backdrop-contrast: ; --tw-backdrop-grayscale: ; --tw-backdrop-hue-rotate: ; --tw-backdrop-invert: ; --tw-backdrop-opacity: ; --tw-backdrop-saturate: ; --tw-backdrop-sepia: ; padding-left: 15px; padding-right: 40px; margin-left: 5px; margin-right: 0px; pointer-events: initial; cursor: initial; list-style-type: none;&quot; class=&quot;lmt__translations_as_text__item&quot;&gt;&lt;br&gt;&lt;/li&gt;&lt;/ul&gt;" style="shape=hexagon;perimeter=hexagonPerimeter2;whiteSpace=wrap;html=1;fixedSize=1;" vertex="1" parent="1">
          <mxGeometry x="190" y="-730" width="800" height="140" as="geometry" />
        </mxCell>
        <mxCell id="-NZZhyzjUMRB8Kej1X74-3" value="&lt;ul style=&quot;font-style: normal; font-variant-caps: normal; font-weight: 400; letter-spacing: normal; text-align: start; text-indent: 0px; text-transform: none; word-spacing: 0px; -webkit-text-stroke-width: 0px; text-decoration: none; box-sizing: border-box; border: 0px solid currentcolor; --tw-border-spacing-x: 0; --tw-border-spacing-y: 0; --tw-translate-x: 0; --tw-translate-y: 0; --tw-rotate: 0; --tw-skew-x: 0; --tw-skew-y: 0; --tw-scale-x: 1; --tw-scale-y: 1; --tw-pan-x: ; --tw-pan-y: ; --tw-pinch-zoom: ; --tw-scroll-snap-strictness: proximity; --tw-ordinal: ; --tw-slashed-zero: ; --tw-numeric-figure: ; --tw-numeric-spacing: ; --tw-numeric-fraction: ; --tw-ring-inset: ; --tw-ring-offset-width: 0px; --tw-ring-offset-color: #fff; --tw-ring-color: rgb(59 130 246 / 0.5); --tw-ring-offset-shadow: 0 0 #0000; --tw-ring-shadow: 0 0 #0000; --tw-shadow: 0 0 #0000; --tw-shadow-colored: 0 0 #0000; --tw-blur: ; --tw-brightness: ; --tw-contrast: ; --tw-grayscale: ; --tw-hue-rotate: ; --tw-invert: ; --tw-saturate: ; --tw-sepia: ; --tw-drop-shadow: ; --tw-backdrop-blur: ; --tw-backdrop-brightness: ; --tw-backdrop-contrast: ; --tw-backdrop-grayscale: ; --tw-backdrop-hue-rotate: ; --tw-backdrop-invert: ; --tw-backdrop-opacity: ; --tw-backdrop-saturate: ; --tw-backdrop-sepia: ; list-style: none; margin: 0px; padding: 0px; font-family: -apple-system, BlinkMacSystemFont, &amp;quot;Segoe UI&amp;quot;, Roboto, Helvetica, Arial, sans-serif; caret-color: rgb(0, 0, 0); font-size: 26px;&quot; aria-labelledby=&quot;alternatives-heading&quot;&gt;&lt;li style=&quot;box-sizing: border-box; border: 0px solid currentcolor; --tw-border-spacing-x: 0; --tw-border-spacing-y: 0; --tw-translate-x: 0; --tw-translate-y: 0; --tw-rotate: 0; --tw-skew-x: 0; --tw-skew-y: 0; --tw-scale-x: 1; --tw-scale-y: 1; --tw-pan-x: ; --tw-pan-y: ; --tw-pinch-zoom: ; --tw-scroll-snap-strictness: proximity; --tw-ordinal: ; --tw-slashed-zero: ; --tw-numeric-figure: ; --tw-numeric-spacing: ; --tw-numeric-fraction: ; --tw-ring-inset: ; --tw-ring-offset-width: 0px; --tw-ring-offset-color: #fff; --tw-ring-color: rgb(59 130 246 / 0.5); --tw-ring-offset-shadow: 0 0 #0000; --tw-ring-shadow: 0 0 #0000; --tw-shadow: 0 0 #0000; --tw-shadow-colored: 0 0 #0000; --tw-blur: ; --tw-brightness: ; --tw-contrast: ; --tw-grayscale: ; --tw-hue-rotate: ; --tw-invert: ; --tw-saturate: ; --tw-sepia: ; --tw-drop-shadow: ; --tw-backdrop-blur: ; --tw-backdrop-brightness: ; --tw-backdrop-contrast: ; --tw-backdrop-grayscale: ; --tw-backdrop-hue-rotate: ; --tw-backdrop-invert: ; --tw-backdrop-opacity: ; --tw-backdrop-saturate: ; --tw-backdrop-sepia: ; padding-left: 15px; padding-right: 40px; margin-left: 5px; margin-right: 0px; pointer-events: initial; cursor: initial; font-family: -apple-system, BlinkMacSystemFont, &amp;quot;Segoe UI&amp;quot;, Roboto, Helvetica, Arial, sans-serif; list-style-type: none;&quot; class=&quot;lmt__translations_as_text__item&quot;&gt;&lt;button style=&quot;box-sizing: border-box; border: none; --tw-border-spacing-x: 0; --tw-border-spacing-y: 0; --tw-translate-x: 0; --tw-translate-y: 0; --tw-rotate: 0; --tw-skew-x: 0; --tw-skew-y: 0; --tw-scale-x: 1; --tw-scale-y: 1; --tw-pan-x: ; --tw-pan-y: ; --tw-pinch-zoom: ; --tw-scroll-snap-strictness: proximity; --tw-ordinal: ; --tw-slashed-zero: ; --tw-numeric-figure: ; --tw-numeric-spacing: ; --tw-numeric-fraction: ; --tw-ring-inset: ; --tw-ring-offset-width: 0px; --tw-ring-offset-color: #fff; --tw-ring-color: rgb(59 130 246 / 0.5); --tw-ring-offset-shadow: 0 0 #0000; --tw-ring-shadow: 0 0 #0000; --tw-shadow: 0 0 #0000; --tw-shadow-colored: 0 0 #0000; --tw-blur: ; --tw-brightness: ; --tw-contrast: ; --tw-grayscale: ; --tw-hue-rotate: ; --tw-invert: ; --tw-saturate: ; --tw-sepia: ; --tw-drop-shadow: ; --tw-backdrop-blur: ; --tw-backdrop-brightness: ; --tw-backdrop-contrast: ; --tw-backdrop-grayscale: ; --tw-backdrop-hue-rotate: ; --tw-backdrop-invert: ; --tw-backdrop-opacity: ; --tw-backdrop-saturate: ; --tw-backdrop-sepia: ; font-family: -apple-system, BlinkMacSystemFont, &amp;quot;Segoe UI&amp;quot;, Roboto, Helvetica, Arial, sans-serif; font-size: 16px; font-weight: 400; line-height: inherit; margin: 0px; padding: 0px; text-transform: none; appearance: button; background-color: rgba(0, 0, 0, 0); cursor: pointer; text-align: left; pointer-events: initial;&quot; aria-description=&quot;クリックして適用します&quot; lang=&quot;en-US&quot; class=&quot;lmt__translations_as_text__text_btn&quot;&gt;&lt;font color=&quot;#000000&quot;&gt;Development Support Softwares&lt;/font&gt;&lt;/button&gt;&lt;/li&gt;&lt;/ul&gt;" style="text;whiteSpace=wrap;html=1;" vertex="1" parent="1">
          <mxGeometry x="198" y="-740" width="330" height="50" as="geometry" />
        </mxCell>
      </root>
    </mxGraphModel>
  </diagram>
</mxfile>
